<?xml version="1.0" encoding="UTF-8" ?>
<svg xmlns="http://www.w3.org/2000/svg" width="2400" height="600">
<rect x="0.0" y="0" width="25.53191489361702" height="600" fill="rgb(50, 38, 31)"/>
<rect x="25.53191489361702" y="0" width="25.53191489361702" height="600" fill="rgb(44, 34, 27)"/>
<rect x="51.06382978723404" y="0" width="25.53191489361702" height="600" fill="rgb(44, 34, 27)"/>
<rect x="76.59574468085106" y="0" width="25.53191489361702" height="600" fill="rgb(50, 38, 31)"/>
<rect x="102.12765957446808" y="0" width="25.53191489361702" height="600" fill="rgb(40, 29, 17)"/>
<rect x="127.65957446808511" y="0" width="25.53191489361702" height="600" fill="rgb(40, 29, 17)"/>
<rect x="153.1914893617021" y="0" width="25.53191489361702" height="600" fill="rgb(90, 67, 63)"/>
<rect x="178.72340425531914" y="0" width="25.53191489361702" height="600" fill="rgb(50, 48, 37)"/>
<rect x="204.25531914893617" y="0" width="25.53191489361702" height="600" fill="rgb(50, 48, 37)"/>
<rect x="229.7872340425532" y="0" width="25.53191489361702" height="600" fill="rgb(70, 61, 51)"/>
<rect x="255.31914893617022" y="0" width="25.53191489361702" height="600" fill="rgb(71, 63, 53)"/>
<rect x="280.8510638297872" y="0" width="25.53191489361702" height="600" fill="rgb(48, 37, 35)"/>
<rect x="306.3829787234042" y="0" width="25.53191489361702" height="600" fill="rgb(36, 29, 29)"/>
<rect x="331.9148936170213" y="0" width="25.53191489361702" height="600" fill="rgb(35, 27, 28)"/>
<rect x="357.4468085106383" y="0" width="25.53191489361702" height="600" fill="rgb(65, 64, 56)"/>
<rect x="382.97872340425533" y="0" width="25.53191489361702" height="600" fill="rgb(70, 62, 57)"/>
<rect x="408.51063829787233" y="0" width="25.53191489361702" height="600" fill="rgb(69, 61, 56)"/>
<rect x="434.04255319148933" y="0" width="25.53191489361702" height="600" fill="rgb(75, 60, 50)"/>
<rect x="459.5744680851064" y="0" width="25.53191489361702" height="600" fill="rgb(42, 31, 29)"/>
<rect x="485.1063829787234" y="0" width="25.53191489361702" height="600" fill="rgb(41, 31, 29)"/>
<rect x="510.63829787234044" y="0" width="25.53191489361702" height="600" fill="rgb(44, 33, 34)"/>
<rect x="536.1702127659574" y="0" width="25.53191489361702" height="600" fill="rgb(52, 44, 44)"/>
<rect x="561.7021276595744" y="0" width="25.53191489361702" height="600" fill="rgb(53, 45, 45)"/>
<rect x="587.2340425531914" y="0" width="25.53191489361702" height="600" fill="rgb(51, 39, 32)"/>
<rect x="612.7659574468084" y="0" width="25.53191489361702" height="600" fill="rgb(73, 57, 51)"/>
<rect x="638.2978723404256" y="0" width="25.53191489361702" height="600" fill="rgb(75, 59, 53)"/>
<rect x="663.8297872340426" y="0" width="25.53191489361702" height="600" fill="rgb(30, 36, 20)"/>
<rect x="689.3617021276596" y="0" width="25.53191489361702" height="600" fill="rgb(59, 54, 54)"/>
<rect x="714.8936170212766" y="0" width="25.53191489361702" height="600" fill="rgb(59, 54, 55)"/>
<rect x="740.4255319148936" y="0" width="25.53191489361702" height="600" fill="rgb(56, 51, 51)"/>
<rect x="765.9574468085107" y="0" width="25.53191489361702" height="600" fill="rgb(63, 67, 73)"/>
<rect x="791.4893617021277" y="0" width="25.53191489361702" height="600" fill="rgb(64, 69, 74)"/>
<rect x="817.0212765957447" y="0" width="25.53191489361702" height="600" fill="rgb(33, 36, 32)"/>
<rect x="842.5531914893617" y="0" width="25.53191489361702" height="600" fill="rgb(62, 42, 38)"/>
<rect x="868.0851063829787" y="0" width="25.53191489361702" height="600" fill="rgb(63, 42, 37)"/>
<rect x="893.6170212765958" y="0" width="25.53191489361702" height="600" fill="rgb(40, 29, 17)"/>
<rect x="919.1489361702128" y="0" width="25.53191489361702" height="600" fill="rgb(51, 38, 26)"/>
<rect x="944.6808510638298" y="0" width="25.53191489361702" height="600" fill="rgb(51, 38, 26)"/>
<rect x="970.2127659574468" y="0" width="25.53191489361702" height="600" fill="rgb(29, 25, 25)"/>
<rect x="995.7446808510638" y="0" width="25.53191489361702" height="600" fill="rgb(61, 40, 30)"/>
<rect x="1021.2765957446809" y="0" width="25.53191489361702" height="600" fill="rgb(60, 39, 31)"/>
<rect x="1046.8085106382978" y="0" width="25.53191489361702" height="600" fill="rgb(51, 47, 45)"/>
<rect x="1072.340425531915" y="0" width="25.53191489361702" height="600" fill="rgb(54, 50, 45)"/>
<rect x="1097.872340425532" y="0" width="25.53191489361702" height="600" fill="rgb(53, 49, 44)"/>
<rect x="1123.404255319149" y="0" width="25.53191489361702" height="600" fill="rgb(38, 37, 34)"/>
<rect x="1148.936170212766" y="0" width="25.53191489361702" height="600" fill="rgb(91, 67, 48)"/>
<rect x="1174.468085106383" y="0" width="25.53191489361702" height="600" fill="rgb(91, 66, 47)"/>
<rect x="1200.0" y="0" width="25.53191489361702" height="600" fill="rgb(55, 74, 79)"/>
<rect x="1225.5319148936169" y="0" width="25.53191489361702" height="600" fill="rgb(82, 60, 53)"/>
<rect x="1251.063829787234" y="0" width="25.53191489361702" height="600" fill="rgb(85, 58, 49)"/>
<rect x="1276.595744680851" y="0" width="25.53191489361702" height="600" fill="rgb(61, 48, 48)"/>
<rect x="1302.127659574468" y="0" width="25.53191489361702" height="600" fill="rgb(44, 35, 31)"/>
<rect x="1327.659574468085" y="0" width="25.53191489361702" height="600" fill="rgb(45, 36, 32)"/>
<rect x="1353.191489361702" y="0" width="25.53191489361702" height="600" fill="rgb(63, 61, 59)"/>
<rect x="1378.723404255319" y="0" width="25.53191489361702" height="600" fill="rgb(67, 59, 63)"/>
<rect x="1404.2553191489362" y="0" width="25.53191489361702" height="600" fill="rgb(67, 59, 62)"/>
<rect x="1429.787234042553" y="0" width="25.53191489361702" height="600" fill="rgb(78, 63, 58)"/>
<rect x="1455.3191489361702" y="0" width="25.53191489361702" height="600" fill="rgb(67, 40, 37)"/>
<rect x="1480.851063829787" y="0" width="25.53191489361702" height="600" fill="rgb(69, 40, 38)"/>
<rect x="1506.3829787234042" y="0" width="25.53191489361702" height="600" fill="rgb(89, 83, 82)"/>
<rect x="1531.9148936170213" y="0" width="25.53191489361702" height="600" fill="rgb(91, 67, 70)"/>
<rect x="1557.4468085106382" y="0" width="25.53191489361702" height="600" fill="rgb(91, 67, 70)"/>
<rect x="1582.9787234042553" y="0" width="25.53191489361702" height="600" fill="rgb(40, 47, 43)"/>
<rect x="1608.5106382978722" y="0" width="25.53191489361702" height="600" fill="rgb(52, 53, 46)"/>
<rect x="1634.0425531914893" y="0" width="25.53191489361702" height="600" fill="rgb(52, 53, 46)"/>
<rect x="1659.5744680851064" y="0" width="25.53191489361702" height="600" fill="rgb(48, 39, 40)"/>
<rect x="1685.1063829787233" y="0" width="25.53191489361702" height="600" fill="rgb(29, 37, 38)"/>
<rect x="1710.6382978723404" y="0" width="25.53191489361702" height="600" fill="rgb(29, 37, 38)"/>
<rect x="1736.1702127659573" y="0" width="25.53191489361702" height="600" fill="rgb(38, 34, 31)"/>
<rect x="1761.7021276595744" y="0" width="25.53191489361702" height="600" fill="rgb(49, 44, 46)"/>
<rect x="1787.2340425531916" y="0" width="25.53191489361702" height="600" fill="rgb(49, 44, 46)"/>
<rect x="1812.7659574468084" y="0" width="25.53191489361702" height="600" fill="rgb(55, 45, 33)"/>
<rect x="1838.2978723404256" y="0" width="25.53191489361702" height="600" fill="rgb(45, 42, 38)"/>
<rect x="1863.8297872340424" y="0" width="25.53191489361702" height="600" fill="rgb(45, 42, 38)"/>
<rect x="1889.3617021276596" y="0" width="25.53191489361702" height="600" fill="rgb(44, 34, 27)"/>
<rect x="1914.8936170212767" y="0" width="25.53191489361702" height="600" fill="rgb(40, 43, 37)"/>
<rect x="1940.4255319148936" y="0" width="25.53191489361702" height="600" fill="rgb(40, 43, 37)"/>
<rect x="1965.9574468085107" y="0" width="25.53191489361702" height="600" fill="rgb(40, 39, 23)"/>
<rect x="1991.4893617021276" y="0" width="25.53191489361702" height="600" fill="rgb(54, 48, 42)"/>
<rect x="2017.0212765957447" y="0" width="25.53191489361702" height="600" fill="rgb(54, 48, 42)"/>
<rect x="2042.5531914893618" y="0" width="25.53191489361702" height="600" fill="rgb(50, 38, 31)"/>
<rect x="2068.0851063829787" y="0" width="25.53191489361702" height="600" fill="rgb(51, 41, 35)"/>
<rect x="2093.6170212765956" y="0" width="25.53191489361702" height="600" fill="rgb(51, 41, 35)"/>
<rect x="2119.148936170213" y="0" width="25.53191489361702" height="600" fill="rgb(63, 42, 37)"/>
<rect x="2144.68085106383" y="0" width="25.53191489361702" height="600" fill="rgb(33, 36, 32)"/>
<rect x="2170.2127659574467" y="0" width="25.53191489361702" height="600" fill="rgb(33, 36, 32)"/>
<rect x="2195.744680851064" y="0" width="25.53191489361702" height="600" fill="rgb(30, 36, 20)"/>
<rect x="2221.276595744681" y="0" width="25.53191489361702" height="600" fill="rgb(59, 54, 55)"/>
<rect x="2246.808510638298" y="0" width="25.53191489361702" height="600" fill="rgb(59, 54, 55)"/>
<rect x="2272.3404255319147" y="0" width="25.53191489361702" height="600" fill="rgb(55, 51, 51)"/>
<rect x="2297.872340425532" y="0" width="25.53191489361702" height="600" fill="rgb(51, 39, 32)"/>
<rect x="2323.404255319149" y="0" width="25.53191489361702" height="600" fill="rgb(51, 39, 32)"/>
<rect x="2348.936170212766" y="0" width="25.53191489361702" height="600" fill="rgb(72, 73, 59)"/>
<rect x="2374.468085106383" y="0" width="25.53191489361702" height="600" fill="rgb(108, 94, 88)"/>
</svg>